<?xml version="1.0" standalone="no"?>
<!DOCTYPE svg PUBLIC "-//W3C//DTD SVG 20010904//EN"
 "http://www.w3.org/TR/2001/REC-SVG-20010904/DTD/svg10.dtd">
<svg version="1.0" xmlns="http://www.w3.org/2000/svg"
 width="500.000000pt" height="500.000000pt" viewBox="0 0 500.000000 500.000000"
 preserveAspectRatio="xMidYMid meet">

<g transform="translate(0.000000,500.000000) scale(0.100000,-0.100000)"
fill="#000000" stroke="none">
<path d="M1455 4423 c-73 -38 -114 -105 -115 -186 0 -59 23 -107 101 -216 l60
-84 -29 -31 c-131 -137 -259 -393 -293 -586 -20 -116 -16 -337 9 -441 73 -301
263 -535 561 -688 56 -29 101 -55 101 -59 0 -4 -24 -21 -53 -39 -76 -46 -140
-105 -183 -170 -47 -71 -94 -203 -94 -264 0 -43 -5 -52 -50 -98 -96 -98 -113
-165 -108 -426 3 -174 4 -182 31 -237 16 -32 47 -74 70 -93 79 -68 51 -66 983
-63 l839 3 41 22 c57 30 120 104 139 164 13 40 16 81 13 212 -3 147 -5 166
-25 200 -29 48 -29 55 2 113 31 59 33 143 6 229 -11 33 -24 86 -30 119 -30
165 -151 283 -303 294 -37 2 -68 8 -68 11 0 3 26 22 58 41 187 112 292 188
378 274 195 197 290 424 301 721 l6 150 155 105 c187 126 217 151 244 204 80
155 -64 386 -240 386 -56 0 -75 -10 -336 -182 -32 -21 -60 -37 -61 -36 -1 2
-17 26 -35 53 -88 132 -185 217 -261 230 -22 4 -39 12 -39 20 0 51 -238 178
-425 226 -102 27 -143 32 -278 37 -239 7 -415 -28 -611 -121 -71 -33 -111 -48
-113 -40 -8 23 -105 178 -126 201 -54 58 -158 79 -222 45z m149 -84 c14 -11
26 -27 26 -36 0 -14 -3 -13 -25 1 -33 22 -93 20 -132 -4 -44 -26 -45 -2 -2 34
39 33 95 35 133 5z m1114 -104 c101 -21 197 -53 276 -91 85 -42 166 -95 166
-110 0 -6 -22 -36 -49 -67 -27 -30 -70 -83 -95 -116 -26 -34 -53 -61 -61 -61
-7 0 -15 -3 -18 -7 -2 -5 -3 -3 -1 3 2 12 -126 74 -152 74 -8 0 -14 3 -14 8 0
13 -121 36 -192 36 -36 1 -64 4 -62 8 3 4 -13 6 -35 5 -22 0 -38 -4 -35 -8 2
-4 -17 -4 -42 -1 -47 5 -127 -9 -199 -34 -23 -8 -50 -14 -61 -14 -11 0 -24 -3
-28 -7 -16 -16 -76 -31 -83 -20 -4 6 -1 13 5 15 33 11 55 39 49 64 -12 48 -86
40 -133 -13 -39 -44 -36 -53 42 -168 41 -60 74 -113 74 -117 0 -4 -19 -23 -42
-43 -43 -37 -84 -50 -74 -25 3 8 2 14 -2 14 -4 0 -20 20 -35 45 -16 25 -34 42
-39 38 -7 -3 -8 -1 -4 6 6 10 -83 166 -104 181 -4 3 -26 35 -49 73 -24 37 -47
67 -52 67 -5 0 -9 8 -9 18 0 9 -7 26 -15 36 -21 28 -20 30 33 65 l47 31 31
-35 32 -36 63 38 c145 88 313 145 484 164 95 10 300 2 383 -16z m-1008 -56 c0
-24 -98 -85 -113 -70 -6 6 -14 11 -19 11 -12 0 -48 -42 -42 -51 2 -4 0 -10 -5
-13 -9 -6 -51 44 -51 61 1 8 50 45 135 101 l50 33 22 -28 c13 -15 23 -35 23
-44z m1578 -213 c44 -23 202 -214 202 -244 0 -16 -28 -41 -46 -42 -5 0 -35 31
-66 68 -53 64 -58 68 -91 64 -28 -3 -38 0 -47 17 -6 12 -8 26 -5 31 9 15 0 12
-21 -7 -15 -14 -129 -154 -140 -171 -5 -8 -44 20 -44 30 0 6 26 44 59 83 32
39 71 91 87 116 46 72 63 80 112 55z m-1639 -82 l21 -26 -20 -29 -20 -28 27
-39 c16 -22 49 -70 76 -106 26 -37 47 -71 47 -77 0 -5 -14 -28 -31 -52 -49
-68 -89 -176 -89 -244 0 -33 17 -54 29 -35 4 7 12 6 25 -3 14 -11 17 -21 12
-42 -9 -39 -9 -39 9 -122 19 -86 51 -161 91 -213 24 -31 168 -140 303 -229
l24 -15 -56 -27 c-71 -35 -120 -90 -141 -158 -10 -30 -21 -62 -27 -71 -12 -23
-12 -37 1 -18 7 11 10 3 9 -30 0 -25 -3 -39 -6 -32 -2 6 -9 10 -14 7 -10 -7
-66 20 -87 41 -7 8 -18 14 -23 14 -5 0 -9 6 -9 14 0 8 -9 12 -23 11 -27 -3
-107 58 -107 81 0 9 -4 13 -9 10 -5 -3 -14 1 -21 9 -10 12 -10 18 -1 29 8 10
9 16 1 21 -5 3 -10 14 -9 23 0 11 4 9 11 -8 6 -14 12 -20 15 -13 2 7 -1 21 -6
32 -12 22 -9 25 31 35 50 12 59 69 14 85 -26 10 -71 -4 -116 -37 -19 -15 -29
-18 -21 -9 11 14 11 20 1 32 -7 8 -18 15 -24 15 -6 0 -4 -5 4 -11 13 -9 13
-10 0 -6 -8 2 -15 10 -15 18 0 23 -42 62 -57 53 -10 -6 -10 -4 1 9 7 9 9 17 3
17 -5 0 -17 17 -25 38 -13 31 -16 33 -16 13 -1 -41 -12 -16 -15 35 -2 27 -11
71 -20 97 -9 26 -16 55 -16 65 -1 13 -4 11 -14 -7 l-13 -23 -6 23 c-4 13 -7
33 -7 44 0 17 2 17 10 5 13 -21 12 -6 -2 25 -13 29 -26 32 -44 8 -12 -15 -13
-16 -8 -2 3 10 1 20 -5 24 -16 9 -13 187 4 278 24 126 78 248 158 357 41 57
152 170 167 170 5 0 18 -12 29 -26z m2391 8 c32 -26 18 -46 -26 -37 -27 5 -33
3 -28 -9 3 -8 -5 -22 -21 -33 -14 -10 -35 -26 -47 -35 -28 -23 -27 -23 -67 17
l-34 35 24 20 c70 58 157 76 199 42z m-1160 -86 c0 -2 -7 -7 -16 -10 -8 -3
-12 -2 -9 4 6 10 25 14 25 6z m909 -16 c36 -19 181 -234 181 -269 0 -26 -22
-42 -40 -30 -13 8 -13 10 -1 18 19 12 8 51 -25 91 -18 20 -29 27 -34 20 -4 -7
-23 9 -51 42 -24 29 -57 65 -73 80 -26 22 -28 28 -17 42 15 18 34 20 60 6z
m-57 -98 c107 -118 177 -272 124 -272 -21 0 -27 12 -10 24 13 10 11 18 -18 61
-34 48 -64 72 -52 41 11 -29 -3 -17 -52 47 -26 34 -53 65 -59 69 -45 30 -49
36 -36 52 24 28 65 20 103 -22z m-1102 -44 c91 -22 61 -28 -138 -28 -118 0
-202 4 -202 9 0 8 31 17 130 35 34 6 155 -3 210 -16z m997 -20 c16 -18 49 -61
72 -95 l41 -62 -54 -35 c-61 -41 -66 -42 -111 -20 -28 13 -34 22 -37 52 -3 37
-4 37 -65 50 -35 8 -63 17 -63 22 0 10 160 120 175 120 6 0 25 -15 42 -32z
m-678 -95 c21 -18 21 -22 19 -338 l-3 -319 -175 -118 -174 -118 -159 0 -159 0
-127 77 c-190 117 -171 73 -171 395 0 300 3 317 65 382 53 55 58 55 476 56
354 0 389 -1 408 -17z m491 -66 c33 -11 35 -15 32 -50 -4 -38 -2 -40 51 -51
29 -7 33 -23 21 -84 -7 -34 -6 -34 -156 -47 -63 -6 -67 -5 -74 17 -4 13 -14
28 -23 35 -14 10 -11 21 29 102 49 98 53 101 120 78z m-1699 -134 c-8 -15 -10
-15 -11 -2 0 17 10 32 18 25 2 -3 -1 -13 -7 -23z m169 -214 c0 -89 -4 -149
-10 -149 -15 0 -40 98 -40 155 0 60 27 158 40 150 6 -4 10 -72 10 -156z m1180
98 c14 -58 8 -121 -15 -172 -12 -27 -13 -18 -14 103 -1 73 3 131 7 128 5 -3
14 -29 22 -59z m548 -78 c-3 -8 -7 -3 -11 10 -4 17 -3 21 5 13 5 -5 8 -16 6
-23z m-21 -51 c-3 -7 -5 -2 -5 12 0 14 2 19 5 13 2 -7 2 -19 0 -25z m-67 -49
c0 -69 -55 -210 -119 -302 -37 -54 -123 -144 -174 -181 -20 -15 -35 -31 -33
-35 3 -4 0 -13 -6 -21 -8 -12 -9 -12 -4 3 5 16 -9 25 -16 9 -1 -4 -28 -23 -58
-42 -30 -19 -61 -40 -68 -47 -16 -16 -32 -17 -32 -3 0 16 -62 50 -91 50 -27 0
-41 -11 -52 -42 -6 -18 0 -26 36 -51 20 -14 21 -12 -232 -183 -25 -17 -59 -44
-76 -59 -16 -16 -31 -27 -32 -24 -3 9 -63 -43 -63 -56 0 -17 34 -29 65 -21 13
3 27 2 30 -4 4 -6 103 -10 265 -10 157 0 270 -4 287 -11 75 -28 131 -90 157
-176 7 -22 5 -23 -38 -17 -24 4 -65 3 -90 0 -89 -14 -186 -137 -186 -236 l0
-30 -355 0 c-253 0 -355 3 -355 11 0 6 -7 8 -16 5 -10 -4 -27 5 -45 24 l-30
30 21 22 c12 13 25 24 31 24 5 1 14 2 20 3 5 0 8 5 5 10 -6 9 38 54 46 46 2
-3 6 20 7 50 2 50 -1 59 -28 85 -33 34 -74 39 -109 14 -12 -8 -22 -25 -22 -37
0 -15 -12 -27 -38 -40 -20 -9 -57 -35 -80 -57 -24 -22 -54 -43 -67 -46 -22 -5
-37 0 -142 48 -29 13 -69 20 -128 22 -47 2 -88 6 -91 9 -14 13 48 121 98 170
54 53 194 152 260 183 35 16 38 16 63 0 l27 -18 -23 -24 c-12 -13 -19 -24 -16
-24 17 0 23 -2 37 -15 9 -8 36 -22 60 -30 51 -18 151 -12 185 11 11 8 16 14
12 14 -4 0 7 14 25 31 32 29 32 30 8 24 l-25 -6 23 14 c12 7 19 16 16 20 -4 4
-3 7 3 7 5 0 25 30 44 67 31 62 34 74 34 158 l0 90 285 192 c156 106 302 207
325 226 23 20 52 59 68 93 16 32 32 66 36 74 6 12 32 16 116 18 59 2 133 7
164 11 31 5 62 9 69 10 7 1 12 -11 12 -30z m-1289 -500 c47 -16 96 -54 114
-89 9 -17 15 -56 15 -95 0 -57 -4 -72 -30 -109 -34 -51 -82 -76 -142 -76 -122
1 -207 109 -184 233 9 48 68 112 119 130 53 19 66 20 108 6z m-86 -789 c3 -6
-1 -7 -9 -4 -18 7 -21 14 -7 14 6 0 13 -4 16 -10z m-498 -19 c0 -11 -5 -18 -9
-15 -4 3 -5 11 -1 19 7 21 12 19 10 -4z m1654 -13 c72 -40 102 -157 38 -150
-3 1 -21 -15 -39 -33 -47 -49 -96 -49 -138 -1 -16 19 -41 36 -53 38 -21 3 -24
8 -22 41 6 101 121 158 214 105z m-1501 -148 c64 -22 153 -74 184 -109 21 -23
19 -30 -13 -36 -15 -3 -19 0 -15 8 4 7 -2 4 -14 -6 -48 -43 -60 -91 -68 -287
-4 -102 -9 -179 -11 -172 -7 20 -23 14 -24 -10 l-2 -23 -4 23 c-4 21 -9 22
-100 22 -77 0 -102 4 -127 19 -35 22 -82 72 -78 84 1 4 -5 7 -13 7 -8 0 -19 8
-24 18 -14 27 -14 295 1 344 34 113 169 165 308 118z m1330 -14 c0 -3 -4 -8
-10 -11 -5 -3 -10 -1 -10 4 0 6 5 11 10 11 6 0 10 -2 10 -4z m-440 -196 c17
-31 2 -70 -26 -70 -18 0 -24 -5 -24 -23 0 -15 -27 -49 -80 -102 -44 -44 -80
-82 -80 -86 0 -3 30 -7 67 -8 70 -2 93 -12 93 -40 0 -36 -21 -41 -157 -41
-130 0 -133 1 -149 25 -14 22 -14 26 2 55 10 16 21 30 25 30 3 0 29 26 57 58
l50 59 -56 2 c-61 2 -87 20 -78 54 4 15 -6 17 -112 17 l-116 0 -42 -45 c-46
-50 -71 -57 -80 -21 -11 45 46 117 116 145 14 5 145 10 302 10 266 1 278 0
288 -19z m490 -2 c48 -25 106 -90 96 -107 -11 -18 -61 -13 -86 9 -13 11 -23
21 -24 22 -1 1 -86 4 -191 7 l-190 6 -3 28 c-6 54 5 57 187 57 153 0 170 -2
211 -22z m-1313 -440 c-3 -8 -6 -5 -6 6 -1 11 2 17 5 13 3 -3 4 -12 1 -19z"/>
<path d="M1525 4129 c-38 -37 -29 -44 19 -15 29 17 35 25 24 33 -10 8 -21 3
-43 -18z"/>
<path d="M1671 2517 c-14 -14 -14 -27 -1 -27 6 0 9 3 9 8 -3 19 2 23 16 12 9
-7 15 -8 15 -2 0 15 -26 22 -39 9z"/>
<path d="M1720 2420 c12 -22 25 -26 35 -10 4 6 -1 7 -11 3 -11 -4 -15 -2 -11
4 4 6 0 14 -8 17 -13 4 -14 2 -5 -14z"/>
<path d="M2170 3429 c-38 -16 -60 -40 -60 -66 0 -33 24 -39 70 -18 48 21 90
15 131 -20 44 -36 79 -13 59 39 -21 55 -135 93 -200 65z"/>
<path d="M2660 3422 c-49 -27 -78 -68 -64 -90 17 -26 38 -25 79 2 44 30 71 32
119 10 44 -21 68 -13 64 22 -7 62 -127 95 -198 56z"/>
<path d="M2220 3190 c-25 -25 -27 -95 -4 -128 17 -25 51 -29 79 -9 26 20 26
122 -1 142 -26 20 -51 18 -74 -5z"/>
<path d="M2670 3190 c-41 -41 -17 -150 34 -150 43 0 60 23 60 80 0 43 -4 56
-23 71 -30 24 -46 24 -71 -1z"/>
<path d="M2230 2980 c-23 -44 54 -151 138 -190 108 -52 253 -17 326 77 39 50
52 83 42 108 -11 29 -37 27 -109 -6 -61 -28 -83 -33 -147 -32 -63 0 -86 5
-142 31 -79 37 -94 39 -108 12z"/>
<path d="M2758 1633 c23 -2 61 -2 85 0 23 2 4 4 -43 4 -47 0 -66 -2 -42 -4z"/>
<path d="M2260 1620 c0 -5 4 -10 9 -10 6 0 13 5 16 10 3 6 -1 10 -9 10 -9 0
-16 -4 -16 -10z"/>
<path d="M2658 1563 c12 -2 32 -2 45 0 12 2 2 4 -23 4 -25 0 -35 -2 -22 -4z"/>
<path d="M2000 1439 c0 -5 5 -7 10 -4 6 3 10 8 10 11 0 2 -4 4 -10 4 -5 0 -10
-5 -10 -11z"/>
<path d="M1013 3962 c-25 -4 -38 -32 -28 -62 8 -24 47 -27 98 -5 33 13 37 13
45 -1 5 -9 7 -25 5 -35 -7 -25 2 -24 27 3 47 50 10 102 -73 103 -29 1 -62 -1
-74 -3z"/>
<path d="M1226 3856 c-32 -37 -43 -43 -72 -40 -25 2 -38 -3 -49 -19 -31 -45
-15 -67 50 -67 48 0 90 45 104 111 6 29 10 53 8 55 -1 2 -20 -16 -41 -40z"/>
<path d="M860 3007 c0 -7 9 -23 20 -35 35 -37 106 -26 131 20 10 19 9 20 -17
14 -39 -10 -93 -7 -115 5 -14 7 -19 6 -19 -4z"/>
<path d="M3920 2989 c0 -17 31 -38 56 -39 23 0 61 36 50 47 -4 4 -10 3 -14 -3
-12 -19 -50 -22 -71 -7 -15 10 -21 11 -21 2z"/>
<path d="M3850 2649 c0 -43 65 -77 108 -56 14 6 32 22 40 35 l15 23 -51 -7
c-29 -4 -64 -2 -81 4 -21 7 -31 8 -31 1z"/>
<path d="M1065 2468 c-27 -29 -65 -75 -86 -103 -21 -27 -63 -81 -93 -118 -58
-70 -68 -105 -46 -148 15 -28 393 -327 435 -345 29 -12 40 -12 60 -2 38 21
275 344 275 377 0 36 -10 48 -105 122 -44 34 -82 65 -85 69 -3 3 -60 50 -126
103 -149 119 -160 121 -229 45z m164 -45 c93 -80 94 -109 0 -45 -33 23 -64 42
-67 41 -4 0 -26 -25 -50 -55 -24 -30 -49 -54 -56 -54 -17 0 -39 26 -34 40 7
23 104 139 116 140 7 0 48 -30 91 -67z m124 -105 c12 -6 66 -47 120 -91 l99
-79 -38 -39 c-21 -22 -41 -39 -44 -39 -4 0 -16 8 -28 18 -42 37 -112 2 -112
-55 0 -13 12 -31 30 -45 30 -22 40 -48 19 -48 -6 0 -8 -7 -5 -16 3 -8 2 -12
-3 -9 -5 3 -16 -3 -23 -13 -7 -10 -23 -24 -35 -30 -19 -11 -28 -7 -70 29 -109
93 -164 152 -151 160 9 6 10 9 1 9 -17 0 -33 34 -23 49 6 11 16 10 54 -4 57
-22 90 -11 124 40 12 19 28 35 35 35 17 0 44 63 29 68 -22 7 -35 42 -21 58 14
17 15 17 42 2z m-325 -29 c1 -15 -11 -42 -33 -71 -30 -41 -40 -48 -70 -48 -18
0 -36 4 -39 8 -6 10 87 128 106 135 22 9 33 1 36 -24z"/>
<path d="M3835 2445 c-27 -7 -86 -21 -129 -30 -96 -21 -132 -49 -122 -96 3
-16 9 -42 12 -58 5 -23 2 -30 -13 -34 -10 -3 -39 -10 -64 -17 -77 -20 -80 -36
-35 -193 21 -72 46 -145 55 -160 29 -50 54 -48 311 25 123 35 137 42 168 76
30 34 37 64 23 103 -10 28 -8 34 9 46 43 30 43 45 0 183 -55 174 -79 192 -215
155z m150 -98 c10 -34 19 -85 20 -113 1 -47 0 -51 -18 -46 -12 3 -18 1 -14 -5
7 -12 -49 -27 -64 -17 -5 3 -5 13 1 25 8 13 7 19 0 19 -6 0 -13 -6 -16 -14 -7
-19 -58 -5 -62 17 -3 12 6 19 28 24 54 10 52 51 -2 55 -15 1 -24 6 -22 10 3 4
-1 8 -8 8 -9 0 -9 3 2 10 23 15 -28 13 -105 -5 -49 -12 -70 -13 -86 -5 -28 16
-20 43 16 52 155 41 272 64 291 56 13 -6 26 -30 39 -71z m-245 -142 c22 -27 7
-49 -40 -61 -41 -10 -45 -14 -48 -43 -3 -26 1 -34 17 -38 30 -8 54 -112 26
-114 -5 0 -1 -4 10 -9 16 -7 17 -9 3 -9 -9 -1 -18 -5 -20 -11 -1 -5 -24 -11
-50 -14 -44 -4 -47 -3 -61 27 -8 18 -22 57 -31 87 -10 30 -25 72 -33 93 -11
26 -13 41 -6 48 6 6 49 18 97 28 48 10 89 21 93 25 11 10 30 7 43 -9z m195
-127 c-1 -17 -9 -24 -28 -26 -34 -4 -37 24 -4 38 32 13 34 12 32 -12z"/>
<path d="M3942 2200 c10 -6 25 -7 40 -1 20 9 18 10 -17 10 -31 0 -36 -2 -23
-9z"/>
<path d="M3920 2180 c0 -5 5 -10 11 -10 5 0 7 5 4 10 -3 6 -8 10 -11 10 -2 0
-4 -4 -4 -10z"/>
<path d="M3670 1625 c-24 -29 4 -42 103 -48 50 -4 109 -9 129 -13 30 -5 39 -3
44 10 11 27 -16 44 -86 55 -96 16 -175 14 -190 -4z"/>
<path d="M1236 1495 c-3 -8 -17 -15 -31 -15 -30 0 -117 -34 -157 -62 -33 -23
-36 -11 -7 26 28 35 8 33 -35 -4 -48 -43 -70 -105 -63 -179 6 -69 32 -119 66
-128 32 -8 191 70 191 93 0 9 -13 32 -30 51 -45 51 -36 96 22 108 56 12 78 32
78 69 0 38 -24 67 -34 41z"/>
<path d="M3720 1458 c0 -12 14 -37 32 -55 28 -29 30 -35 20 -59 -11 -24 -16
-25 -54 -19 -37 7 -41 6 -30 -8 23 -27 70 -41 98 -28 33 15 34 14 34 -9 0 -44
-84 -49 -136 -7 l-27 21 -18 -23 c-28 -34 -24 -65 11 -95 106 -89 270 -27 270
102 0 70 -34 130 -66 118 -10 -4 -35 10 -67 39 -59 51 -67 54 -67 23z"/>
<path d="M1157 1061 c-36 -39 -74 -82 -83 -96 -15 -24 -16 -28 -2 -42 12 -12
20 -13 37 -4 11 7 21 15 21 20 0 5 30 41 66 80 64 69 77 102 43 109 -9 2 -44
-27 -82 -67z"/>
</g>
</svg>
